<svg width="1221" height="227" viewBox="0 0 1221 227" fill="none" xmlns="http://www.w3.org/2000/svg">
<rect y="9" width="1220" height="218" rx="15" fill="white"/>
<mask id="path-2-outside-1_57_4" maskUnits="userSpaceOnUse" x="189" y="43" width="369" height="144" fill="black">
<rect fill="white" x="189" y="43" width="369" height="144"/>
<path d="M192.89 184V46.0677H252.427C262.665 46.0677 271.622 48.0882 279.3 52.1292C286.978 56.1702 292.949 61.85 297.215 69.1687C301.48 76.4874 303.613 85.0408 303.613 94.8289C303.613 104.707 301.413 113.26 297.013 120.489C292.658 127.718 286.529 133.286 278.626 137.192C270.769 141.098 261.587 143.051 251.08 143.051H215.52V113.956H243.537C247.937 113.956 251.686 113.193 254.785 111.666C257.928 110.095 260.33 107.872 261.991 104.999C263.697 102.125 264.55 98.7352 264.55 94.8289C264.55 90.8777 263.697 87.5103 261.991 84.7265C260.33 81.8978 257.928 79.7426 254.785 78.2609C251.686 76.7343 247.937 75.971 243.537 75.971H230.337V184H192.89ZM317.352 184V46.0677H416.761V76.2404H354.799V99.9475H411.642V130.12H354.799V153.827H416.491V184H317.352ZM554.676 46.0677V184H523.426L473.587 111.532H472.779V184H435.332V46.0677H467.121L516.152 118.267H517.23V46.0677H554.676Z"/>
</mask>
<path d="M192.89 184V46.0677H252.427C262.665 46.0677 271.622 48.0882 279.3 52.1292C286.978 56.1702 292.949 61.85 297.215 69.1687C301.48 76.4874 303.613 85.0408 303.613 94.8289C303.613 104.707 301.413 113.26 297.013 120.489C292.658 127.718 286.529 133.286 278.626 137.192C270.769 141.098 261.587 143.051 251.08 143.051H215.52V113.956H243.537C247.937 113.956 251.686 113.193 254.785 111.666C257.928 110.095 260.33 107.872 261.991 104.999C263.697 102.125 264.55 98.7352 264.55 94.8289C264.55 90.8777 263.697 87.5103 261.991 84.7265C260.33 81.8978 257.928 79.7426 254.785 78.2609C251.686 76.7343 247.937 75.971 243.537 75.971H230.337V184H192.89ZM317.352 184V46.0677H416.761V76.2404H354.799V99.9475H411.642V130.12H354.799V153.827H416.491V184H317.352ZM554.676 46.0677V184H523.426L473.587 111.532H472.779V184H435.332V46.0677H467.121L516.152 118.267H517.23V46.0677H554.676Z" fill="black"/>
<path d="M192.89 184H189.89V187H192.89V184ZM192.89 46.0677V43.0677H189.89V46.0677H192.89ZM279.3 52.1292L277.903 54.784L277.903 54.784L279.3 52.1292ZM297.215 69.1687L299.807 67.6581L299.807 67.6581L297.215 69.1687ZM297.013 120.489L294.45 118.929L294.443 118.941L297.013 120.489ZM278.626 137.192L277.297 134.503L277.291 134.506L278.626 137.192ZM215.52 143.051H212.52V146.051H215.52V143.051ZM215.52 113.956V110.956H212.52V113.956H215.52ZM254.785 111.666L256.111 114.357L256.118 114.354L256.126 114.35L254.785 111.666ZM261.991 104.999L259.411 103.467L259.403 103.482L259.394 103.497L261.991 104.999ZM261.991 84.7265L259.404 86.2457L259.418 86.2701L259.433 86.2942L261.991 84.7265ZM254.785 78.2609L253.459 80.9519L253.482 80.9634L253.505 80.9745L254.785 78.2609ZM230.337 75.971V72.971H227.337V75.971H230.337ZM230.337 184V187H233.337V184H230.337ZM192.89 184H195.89V46.0677H192.89H189.89V184H192.89ZM192.89 46.0677V49.0677H252.427V46.0677V43.0677H192.89V46.0677ZM252.427 46.0677V49.0677C262.265 49.0677 270.727 51.0072 277.903 54.784L279.3 52.1292L280.697 49.4744C272.517 45.1692 263.064 43.0677 252.427 43.0677V46.0677ZM279.3 52.1292L277.903 54.784C285.096 58.5698 290.648 63.8587 294.623 70.6793L297.215 69.1687L299.807 67.6581C295.251 59.8413 288.86 53.7706 280.697 49.4744L279.3 52.1292ZM297.215 69.1687L294.623 70.6793C298.582 77.4722 300.613 85.4879 300.613 94.8289H303.613H306.613C306.613 84.5936 304.379 75.5025 299.807 67.6581L297.215 69.1687ZM303.613 94.8289H300.613C300.613 104.25 298.519 112.244 294.45 118.929L297.013 120.489L299.575 122.049C304.307 114.276 306.613 105.164 306.613 94.8289H303.613ZM297.013 120.489L294.443 118.941C290.397 125.656 284.709 130.838 277.297 134.503L278.626 137.192L279.956 139.881C288.348 135.733 294.918 129.78 299.583 122.037L297.013 120.489ZM278.626 137.192L277.291 134.506C269.922 138.169 261.214 140.051 251.08 140.051V143.051V146.051C261.96 146.051 271.615 144.028 279.962 139.878L278.626 137.192ZM251.08 143.051V140.051H215.52V143.051V146.051H251.08V143.051ZM215.52 143.051H218.52V113.956H215.52H212.52V143.051H215.52ZM215.52 113.956V116.956H243.537V113.956V110.956H215.52V113.956ZM243.537 113.956V116.956C248.275 116.956 252.503 116.135 256.111 114.357L254.785 111.666L253.459 108.975C250.87 110.251 247.6 110.956 243.537 110.956V113.956ZM254.785 111.666L256.126 114.35C259.762 112.532 262.615 109.913 264.588 106.5L261.991 104.999L259.394 103.497C258.044 105.832 256.093 107.658 253.443 108.983L254.785 111.666ZM261.991 104.999L264.571 106.53C266.595 103.12 267.55 99.1822 267.55 94.8289H264.55H261.55C261.55 98.2883 260.799 101.13 259.411 103.467L261.991 104.999ZM264.55 94.8289H267.55C267.55 90.4411 266.6 86.5048 264.549 83.1588L261.991 84.7265L259.433 86.2942C260.795 88.5157 261.55 91.3144 261.55 94.8289H264.55ZM261.991 84.7265L264.578 83.2072C262.592 79.8263 259.719 77.2704 256.064 75.5473L254.785 78.2609L253.505 80.9745C256.136 82.2148 258.067 83.9693 259.404 86.2457L261.991 84.7265ZM254.785 78.2609L256.111 75.5699C252.503 73.7921 248.275 72.971 243.537 72.971V75.971V78.971C247.6 78.971 250.87 79.6765 253.459 80.9519L254.785 78.2609ZM243.537 75.971V72.971H230.337V75.971V78.971H243.537V75.971ZM230.337 75.971H227.337V184H230.337H233.337V75.971H230.337ZM230.337 184V181H192.89V184V187H230.337V184ZM317.352 184H314.352V187H317.352V184ZM317.352 46.0677V43.0677H314.352V46.0677H317.352ZM416.761 46.0677H419.761V43.0677H416.761V46.0677ZM416.761 76.2404V79.2404H419.761V76.2404H416.761ZM354.799 76.2404V73.2404H351.799V76.2404H354.799ZM354.799 99.9475H351.799V102.948H354.799V99.9475ZM411.642 99.9475H414.642V96.9475H411.642V99.9475ZM411.642 130.12V133.12H414.642V130.12H411.642ZM354.799 130.12V127.12H351.799V130.12H354.799ZM354.799 153.827H351.799V156.827H354.799V153.827ZM416.491 153.827H419.491V150.827H416.491V153.827ZM416.491 184V187H419.491V184H416.491ZM317.352 184H320.352V46.0677H317.352H314.352V184H317.352ZM317.352 46.0677V49.0677H416.761V46.0677V43.0677H317.352V46.0677ZM416.761 46.0677H413.761V76.2404H416.761H419.761V46.0677H416.761ZM416.761 76.2404V73.2404H354.799V76.2404V79.2404H416.761V76.2404ZM354.799 76.2404H351.799V99.9475H354.799H357.799V76.2404H354.799ZM354.799 99.9475V102.948H411.642V99.9475V96.9475H354.799V99.9475ZM411.642 99.9475H408.642V130.12H411.642H414.642V99.9475H411.642ZM411.642 130.12V127.12H354.799V130.12V133.12H411.642V130.12ZM354.799 130.12H351.799V153.827H354.799H357.799V130.12H354.799ZM354.799 153.827V156.827H416.491V153.827V150.827H354.799V153.827ZM416.491 153.827H413.491V184H416.491H419.491V153.827H416.491ZM416.491 184V181H317.352V184V187H416.491V184ZM554.676 46.0677H557.676V43.0677H554.676V46.0677ZM554.676 184V187H557.676V184H554.676ZM523.426 184L520.954 185.7L521.848 187H523.426V184ZM473.587 111.532L476.059 109.832L475.165 108.532H473.587V111.532ZM472.779 111.532V108.532H469.779V111.532H472.779ZM472.779 184V187H475.779V184H472.779ZM435.332 184H432.332V187H435.332V184ZM435.332 46.0677V43.0677H432.332V46.0677H435.332ZM467.121 46.0677L469.603 44.3823L468.711 43.0677H467.121V46.0677ZM516.152 118.267L513.67 119.952L514.563 121.267H516.152V118.267ZM517.23 118.267V121.267H520.23V118.267H517.23ZM517.23 46.0677V43.0677H514.23V46.0677H517.23ZM554.676 46.0677H551.676V184H554.676H557.676V46.0677H554.676ZM554.676 184V181H523.426V184V187H554.676V184ZM523.426 184L525.898 182.3L476.059 109.832L473.587 111.532L471.115 113.232L520.954 185.7L523.426 184ZM473.587 111.532V108.532H472.779V111.532V114.532H473.587V111.532ZM472.779 111.532H469.779V184H472.779H475.779V111.532H472.779ZM472.779 184V181H435.332V184V187H472.779V184ZM435.332 184H438.332V46.0677H435.332H432.332V184H435.332ZM435.332 46.0677V49.0677H467.121V46.0677V43.0677H435.332V46.0677ZM467.121 46.0677L464.64 47.7531L513.67 119.952L516.152 118.267L518.634 116.581L469.603 44.3823L467.121 46.0677ZM516.152 118.267V121.267H517.23V118.267V115.267H516.152V118.267ZM517.23 118.267H520.23V46.0677H517.23H514.23V118.267H517.23ZM517.23 46.0677V49.0677H554.676V46.0677V43.0677H517.23V46.0677Z" fill="black" mask="url(#path-2-outside-1_57_4)"/>
<mask id="path-4-outside-2_57_4" maskUnits="userSpaceOnUse" x="593" y="47" width="587" height="138" fill="black">
<rect fill="white" x="593" y="47" width="587" height="138"/>
<path d="M629.855 54.2121L659.533 147.502H660.672L690.41 54.2121H719.188L676.86 177H643.405L601.017 54.2121H629.855ZM759.928 54.2121V177H733.967V54.2121H759.928ZM847.897 89.5256C847.417 84.6892 845.359 80.9321 841.721 78.2541C838.084 75.5761 833.148 74.2371 826.913 74.2371C822.676 74.2371 819.098 74.8366 816.181 76.0357C813.263 77.1949 811.024 78.8137 809.466 80.8921C807.947 82.9705 807.187 85.3288 807.187 87.9668C807.107 90.1651 807.567 92.0837 808.566 93.7225C809.606 95.3612 811.024 96.7802 812.823 97.9793C814.622 99.1384 816.7 100.158 819.058 101.037C821.417 101.876 823.935 102.596 826.613 103.195L837.644 105.833C843 107.032 847.917 108.631 852.393 110.63C856.87 112.628 860.747 115.086 864.025 118.004C867.302 120.922 869.84 124.359 871.639 128.317C873.478 132.274 874.417 136.81 874.457 141.926C874.417 149.441 872.498 155.956 868.701 161.472C864.944 166.948 859.508 171.204 852.393 174.242C845.319 177.24 836.785 178.739 826.793 178.739C816.88 178.739 808.247 177.22 800.892 174.182C793.578 171.144 787.862 166.648 783.745 160.692C779.668 154.697 777.53 147.282 777.33 138.449H802.451C802.731 142.566 803.91 146.003 805.988 148.761C808.107 151.479 810.925 153.538 814.442 154.937C817.999 156.296 822.016 156.975 826.493 156.975C830.89 156.975 834.707 156.336 837.944 155.056C841.222 153.777 843.76 151.999 845.559 149.72C847.357 147.442 848.257 144.824 848.257 141.866C848.257 139.108 847.437 136.79 845.798 134.912C844.2 133.033 841.841 131.434 838.724 130.115C835.646 128.796 831.869 127.597 827.392 126.518L814.022 123.16C803.67 120.642 795.496 116.705 789.501 111.349C783.505 105.993 780.527 98.7787 780.567 89.7055C780.527 82.2711 782.506 75.7759 786.503 70.2201C790.54 64.6643 796.076 60.3275 803.11 57.2099C810.145 54.0922 818.139 52.5334 827.092 52.5334C836.206 52.5334 844.16 54.0922 850.954 57.2099C857.789 60.3275 863.105 64.6643 866.903 70.2201C870.7 75.7759 872.658 82.2111 872.778 89.5256H847.897ZM917.879 54.2121V177H891.919V54.2121H917.879ZM1052.07 115.606C1052.07 128.996 1049.54 140.387 1044.46 149.78C1039.42 159.173 1032.55 166.348 1023.83 171.304C1015.16 176.221 1005.41 178.679 994.577 178.679C983.665 178.679 973.872 176.201 965.199 171.244C956.525 166.288 949.67 159.113 944.634 149.72C939.598 140.328 937.08 128.956 937.08 115.606C937.08 102.216 939.598 90.8246 944.634 81.4317C949.67 72.0387 956.525 64.8841 965.199 59.9678C973.872 55.0115 983.665 52.5334 994.577 52.5334C1005.41 52.5334 1015.16 55.0115 1023.83 59.9678C1032.55 64.8841 1039.42 72.0387 1044.46 81.4317C1049.54 90.8246 1052.07 102.216 1052.07 115.606ZM1025.75 115.606C1025.75 106.933 1024.45 99.618 1021.86 93.6625C1019.3 87.707 1015.68 83.1904 1011 80.1127C1006.33 77.035 1000.85 75.4961 994.577 75.4961C988.301 75.4961 982.826 77.035 978.149 80.1127C973.473 83.1904 969.835 87.707 967.237 93.6625C964.679 99.618 963.4 106.933 963.4 115.606C963.4 124.28 964.679 131.594 967.237 137.55C969.835 143.505 973.473 148.022 978.149 151.099C982.826 154.177 988.301 155.716 994.577 155.716C1000.85 155.716 1006.33 154.177 1011 151.099C1015.68 148.022 1019.3 143.505 1021.86 137.55C1024.45 131.594 1025.75 124.28 1025.75 115.606ZM1174.01 54.2121V177H1151.58L1098.16 99.718H1097.26V177H1071.3V54.2121H1094.09L1147.09 131.434H1148.17V54.2121H1174.01Z"/>
</mask>
<path d="M629.855 54.2121L659.533 147.502H660.672L690.41 54.2121H719.188L676.86 177H643.405L601.017 54.2121H629.855ZM759.928 54.2121V177H733.967V54.2121H759.928ZM847.897 89.5256C847.417 84.6892 845.359 80.9321 841.721 78.2541C838.084 75.5761 833.148 74.2371 826.913 74.2371C822.676 74.2371 819.098 74.8366 816.181 76.0357C813.263 77.1949 811.024 78.8137 809.466 80.8921C807.947 82.9705 807.187 85.3288 807.187 87.9668C807.107 90.1651 807.567 92.0837 808.566 93.7225C809.606 95.3612 811.024 96.7802 812.823 97.9793C814.622 99.1384 816.7 100.158 819.058 101.037C821.417 101.876 823.935 102.596 826.613 103.195L837.644 105.833C843 107.032 847.917 108.631 852.393 110.63C856.87 112.628 860.747 115.086 864.025 118.004C867.302 120.922 869.84 124.359 871.639 128.317C873.478 132.274 874.417 136.81 874.457 141.926C874.417 149.441 872.498 155.956 868.701 161.472C864.944 166.948 859.508 171.204 852.393 174.242C845.319 177.24 836.785 178.739 826.793 178.739C816.88 178.739 808.247 177.22 800.892 174.182C793.578 171.144 787.862 166.648 783.745 160.692C779.668 154.697 777.53 147.282 777.33 138.449H802.451C802.731 142.566 803.91 146.003 805.988 148.761C808.107 151.479 810.925 153.538 814.442 154.937C817.999 156.296 822.016 156.975 826.493 156.975C830.89 156.975 834.707 156.336 837.944 155.056C841.222 153.777 843.76 151.999 845.559 149.72C847.357 147.442 848.257 144.824 848.257 141.866C848.257 139.108 847.437 136.79 845.798 134.912C844.2 133.033 841.841 131.434 838.724 130.115C835.646 128.796 831.869 127.597 827.392 126.518L814.022 123.16C803.67 120.642 795.496 116.705 789.501 111.349C783.505 105.993 780.527 98.7787 780.567 89.7055C780.527 82.2711 782.506 75.7759 786.503 70.2201C790.54 64.6643 796.076 60.3275 803.11 57.2099C810.145 54.0922 818.139 52.5334 827.092 52.5334C836.206 52.5334 844.16 54.0922 850.954 57.2099C857.789 60.3275 863.105 64.6643 866.903 70.2201C870.7 75.7759 872.658 82.2111 872.778 89.5256H847.897ZM917.879 54.2121V177H891.919V54.2121H917.879ZM1052.07 115.606C1052.07 128.996 1049.54 140.387 1044.46 149.78C1039.42 159.173 1032.55 166.348 1023.83 171.304C1015.16 176.221 1005.41 178.679 994.577 178.679C983.665 178.679 973.872 176.201 965.199 171.244C956.525 166.288 949.67 159.113 944.634 149.72C939.598 140.328 937.08 128.956 937.08 115.606C937.08 102.216 939.598 90.8246 944.634 81.4317C949.67 72.0387 956.525 64.8841 965.199 59.9678C973.872 55.0115 983.665 52.5334 994.577 52.5334C1005.41 52.5334 1015.16 55.0115 1023.83 59.9678C1032.55 64.8841 1039.42 72.0387 1044.46 81.4317C1049.54 90.8246 1052.07 102.216 1052.07 115.606ZM1025.75 115.606C1025.75 106.933 1024.45 99.618 1021.86 93.6625C1019.3 87.707 1015.68 83.1904 1011 80.1127C1006.33 77.035 1000.85 75.4961 994.577 75.4961C988.301 75.4961 982.826 77.035 978.149 80.1127C973.473 83.1904 969.835 87.707 967.237 93.6625C964.679 99.618 963.4 106.933 963.4 115.606C963.4 124.28 964.679 131.594 967.237 137.55C969.835 143.505 973.473 148.022 978.149 151.099C982.826 154.177 988.301 155.716 994.577 155.716C1000.85 155.716 1006.33 154.177 1011 151.099C1015.68 148.022 1019.3 143.505 1021.86 137.55C1024.45 131.594 1025.75 124.28 1025.75 115.606ZM1174.01 54.2121V177H1151.58L1098.16 99.718H1097.26V177H1071.3V54.2121H1094.09L1147.09 131.434H1148.17V54.2121H1174.01Z" fill="#A41034"/>
<path d="M629.855 54.2121L634.978 52.5826L633.786 48.8368H629.855V54.2121ZM659.533 147.502L654.411 149.132L655.602 152.877H659.533V147.502ZM660.672 147.502V152.877H664.601L665.794 149.135L660.672 147.502ZM690.41 54.2121V48.8368H686.482L685.289 52.5796L690.41 54.2121ZM719.188 54.2121L724.27 55.9639L726.727 48.8368H719.188V54.2121ZM676.86 177V182.375H680.693L681.942 178.752L676.86 177ZM643.405 177L638.324 178.754L639.574 182.375H643.405V177ZM601.017 54.2121V48.8368H593.475L595.936 55.9662L601.017 54.2121ZM629.855 54.2121L624.733 55.8416L654.411 149.132L659.533 147.502L664.655 145.873L634.978 52.5826L629.855 54.2121ZM659.533 147.502V152.877H660.672V147.502V142.127H659.533V147.502ZM660.672 147.502L665.794 149.135L695.531 55.8446L690.41 54.2121L685.289 52.5796L655.551 145.87L660.672 147.502ZM690.41 54.2121V59.5874H719.188V54.2121V48.8368H690.41V54.2121ZM719.188 54.2121L714.107 52.4603L671.778 175.248L676.86 177L681.942 178.752L724.27 55.9639L719.188 54.2121ZM676.86 177V171.625H643.405V177V182.375H676.86V177ZM643.405 177L648.486 175.246L606.098 52.4581L601.017 54.2121L595.936 55.9662L638.324 178.754L643.405 177ZM601.017 54.2121V59.5874H629.855V54.2121V48.8368H601.017V54.2121ZM759.928 54.2121H765.303V48.8368H759.928V54.2121ZM759.928 177V182.375H765.303V177H759.928ZM733.967 177H728.592V182.375H733.967V177ZM733.967 54.2121V48.8368H728.592V54.2121H733.967ZM759.928 54.2121H754.552V177H759.928H765.303V54.2121H759.928ZM759.928 177V171.625H733.967V177V182.375H759.928V177ZM733.967 177H739.343V54.2121H733.967H728.592V177H733.967ZM733.967 54.2121V59.5874H759.928V54.2121V48.8368H733.967V54.2121ZM847.897 89.5256L842.548 90.0561L843.028 94.9009H847.897V89.5256ZM816.181 76.0357L818.165 81.0313L818.195 81.0196L818.224 81.0076L816.181 76.0357ZM809.466 80.8921L805.165 77.6669L805.145 77.6936L805.126 77.7206L809.466 80.8921ZM807.187 87.9668L812.559 88.1621L812.563 88.0645V87.9668H807.187ZM808.566 93.7225L803.977 96.5209L804.002 96.5612L804.027 96.6012L808.566 93.7225ZM812.823 97.9793L809.841 102.452L809.876 102.475L809.911 102.498L812.823 97.9793ZM819.058 101.037L817.18 106.074L817.218 106.088L817.256 106.101L819.058 101.037ZM826.613 103.195L827.863 97.9675L827.825 97.9584L827.787 97.9499L826.613 103.195ZM837.644 105.833L836.394 111.061L836.432 111.07L836.47 111.079L837.644 105.833ZM852.393 110.63L850.202 115.538L850.202 115.538L852.393 110.63ZM864.025 118.004L867.599 113.989L867.599 113.989L864.025 118.004ZM871.639 128.317L866.746 130.541L866.755 130.561L866.764 130.582L871.639 128.317ZM874.457 141.926L879.832 141.955L879.832 141.92L879.832 141.884L874.457 141.926ZM868.701 161.472L864.274 158.424L864.269 158.431L868.701 161.472ZM852.393 174.242L854.491 179.191L854.497 179.188L854.504 179.186L852.393 174.242ZM800.892 174.182L798.83 179.146L798.84 179.15L800.892 174.182ZM783.745 160.692L779.3 163.715L779.312 163.732L779.323 163.749L783.745 160.692ZM777.33 138.449V133.074H771.831L771.956 138.571L777.33 138.449ZM802.451 138.449L807.814 138.084L807.473 133.074H802.451V138.449ZM805.988 148.761L801.695 151.996L801.722 152.031L801.749 152.066L805.988 148.761ZM814.442 154.937L812.455 159.931L812.489 159.945L812.524 159.958L814.442 154.937ZM837.944 155.056L835.99 150.049L835.98 150.053L835.969 150.057L837.944 155.056ZM845.559 149.72L849.778 153.051L849.778 153.051L845.559 149.72ZM845.798 134.912L841.705 138.395L841.726 138.42L841.748 138.445L845.798 134.912ZM838.724 130.115L836.606 135.056L836.618 135.061L836.629 135.066L838.724 130.115ZM827.392 126.518L826.083 131.731L826.108 131.737L826.132 131.743L827.392 126.518ZM814.022 123.16L815.331 117.947L815.312 117.942L815.293 117.937L814.022 123.16ZM789.501 111.349L785.92 115.358L785.92 115.358L789.501 111.349ZM780.567 89.7055L785.943 89.7292L785.943 89.7029L785.942 89.6766L780.567 89.7055ZM786.503 70.2201L782.154 67.0604L782.147 67.0707L782.139 67.081L786.503 70.2201ZM850.954 57.2099L848.713 62.0954L848.724 62.1004L850.954 57.2099ZM866.903 70.2201L862.465 73.2531L862.465 73.2532L866.903 70.2201ZM872.778 89.5256V94.9009H878.242L878.153 89.4375L872.778 89.5256ZM847.897 89.5256L853.246 88.9951C852.629 82.7731 849.873 77.5805 844.908 73.9255L841.721 78.2541L838.534 82.5827C840.845 84.2836 842.206 86.6054 842.548 90.0561L847.897 89.5256ZM841.721 78.2541L844.908 73.9255C840.055 70.3518 833.868 68.8618 826.913 68.8618V74.2371V79.6124C832.428 79.6124 836.114 80.8003 838.534 82.5827L841.721 78.2541ZM826.913 74.2371V68.8618C822.201 68.8618 817.884 69.524 814.137 71.0639L816.181 76.0357L818.224 81.0076C820.312 80.1492 823.15 79.6124 826.913 79.6124V74.2371ZM816.181 76.0357L814.196 71.0402C810.551 72.4884 807.431 74.6455 805.165 77.6669L809.466 80.8921L813.766 84.1173C814.617 82.9818 815.975 81.9013 818.165 81.0313L816.181 76.0357ZM809.466 80.8921L805.126 77.7206C802.916 80.7438 801.812 84.2188 801.812 87.9668H807.187H812.563C812.563 86.4387 812.977 85.1973 813.806 84.0636L809.466 80.8921ZM807.187 87.9668L801.816 87.7715C801.703 90.8646 802.352 93.8562 803.977 96.5209L808.566 93.7225L813.156 90.9241C812.782 90.3112 812.512 89.4656 812.559 88.1621L807.187 87.9668ZM808.566 93.7225L804.027 96.6012C805.512 98.943 807.489 100.884 809.841 102.452L812.823 97.9793L815.805 93.5068C814.559 92.6766 813.699 91.7795 813.106 90.8438L808.566 93.7225ZM812.823 97.9793L809.911 102.498C812.086 103.899 814.522 105.082 817.18 106.074L819.058 101.037L820.936 96.0005C818.879 95.2332 817.158 94.3779 815.735 93.461L812.823 97.9793ZM819.058 101.037L817.256 106.101C819.838 107.02 822.568 107.798 825.438 108.441L826.613 103.195L827.787 97.9499C825.302 97.3935 822.995 96.7326 820.861 95.9729L819.058 101.037ZM826.613 103.195L825.363 108.423L836.394 111.061L837.644 105.833L838.895 100.606L827.863 97.9675L826.613 103.195ZM837.644 105.833L836.47 111.079C841.518 112.209 846.089 113.702 850.202 115.538L852.393 110.63L854.585 105.721C849.745 103.561 844.483 101.856 838.819 100.588L837.644 105.833ZM852.393 110.63L850.202 115.538C854.233 117.338 857.631 119.509 860.451 122.019L864.025 118.004L867.599 113.989C863.864 110.664 859.507 107.919 854.585 105.721L852.393 110.63ZM864.025 118.004L860.451 122.019C863.174 124.443 865.26 127.273 866.746 130.541L871.639 128.317L876.532 126.092C874.421 121.446 871.431 117.401 867.599 113.989L864.025 118.004ZM871.639 128.317L866.764 130.582C868.228 133.732 869.047 137.489 869.082 141.968L874.457 141.926L879.832 141.884C879.787 136.131 878.727 130.815 876.514 126.051L871.639 128.317ZM874.457 141.926L869.082 141.898C869.047 148.47 867.386 153.903 864.274 158.424L868.701 161.472L873.129 164.52C877.611 158.009 879.787 150.411 879.832 141.955L874.457 141.926ZM868.701 161.472L864.269 158.431C861.179 162.934 856.616 166.594 850.283 169.299L852.393 174.242L854.504 179.186C862.4 175.814 868.709 170.961 873.133 164.513L868.701 161.472ZM852.393 174.242L850.296 169.293C844.052 171.939 836.271 173.363 826.793 173.363V178.739V184.114C837.299 184.114 846.586 182.541 854.491 179.191L852.393 174.242ZM826.793 178.739V173.363C817.417 173.363 809.509 171.926 802.944 169.214L800.892 174.182L798.84 179.15C806.984 182.514 816.343 184.114 826.793 184.114V178.739ZM800.892 174.182L802.954 169.218C796.5 166.538 791.642 162.663 788.167 157.636L783.745 160.692L779.323 163.749C784.082 170.633 790.655 175.751 798.83 179.146L800.892 174.182ZM783.745 160.692L788.19 157.67C784.812 152.702 782.885 146.353 782.704 138.327L777.33 138.449L771.956 138.571C772.174 148.212 774.524 156.691 779.3 163.715L783.745 160.692ZM777.33 138.449V143.824H802.451V138.449V133.074H777.33V138.449ZM802.451 138.449L797.088 138.813C797.424 143.765 798.876 148.255 801.695 151.996L805.988 148.761L810.281 145.526C808.944 143.752 808.037 141.367 807.814 138.084L802.451 138.449ZM805.988 148.761L801.749 152.066C804.511 155.61 808.14 158.215 812.455 159.931L814.442 154.937L816.428 149.942C813.709 148.86 811.702 147.348 810.228 145.457L805.988 148.761ZM814.442 154.937L812.524 159.958C816.791 161.588 821.473 162.35 826.493 162.35V156.975V151.6C822.559 151.6 819.208 151.003 816.36 149.915L814.442 154.937ZM826.493 156.975V162.35C831.395 162.35 835.911 161.639 839.919 160.056L837.944 155.056L835.969 150.057C833.502 151.032 830.384 151.6 826.493 151.6V156.975ZM837.944 155.056L839.898 160.064C843.878 158.511 847.272 156.224 849.778 153.051L845.559 149.72L841.34 146.39C840.247 147.773 838.566 149.044 835.99 150.049L837.944 155.056ZM845.559 149.72L849.778 153.051C852.34 149.805 853.632 146.008 853.632 141.866H848.257H842.881C842.881 143.64 842.374 145.079 841.34 146.39L845.559 149.72ZM848.257 141.866H853.632C853.632 137.958 852.435 134.342 849.849 131.378L845.798 134.912L841.748 138.445C842.44 139.238 842.881 140.259 842.881 141.866H848.257ZM845.798 134.912L849.892 131.428C847.587 128.719 844.435 126.695 840.818 125.165L838.724 130.115L836.629 135.066C839.247 136.173 840.813 137.347 841.705 138.395L845.798 134.912ZM838.724 130.115L840.841 125.175C837.405 123.702 833.321 122.418 828.652 121.292L827.392 126.518L826.132 131.743C830.416 132.776 833.887 133.89 836.606 135.056L838.724 130.115ZM827.392 126.518L828.701 121.304L815.331 117.947L814.022 123.16L812.713 128.374L826.083 131.731L827.392 126.518ZM814.022 123.16L815.293 117.937C805.53 115.563 798.239 111.948 793.082 107.341L789.501 111.349L785.92 115.358C792.753 121.463 801.81 125.722 812.752 128.383L814.022 123.16ZM789.501 111.349L793.082 107.341C788.388 103.148 785.908 97.4835 785.943 89.7292L780.567 89.7055L775.192 89.6818C775.146 100.074 778.622 108.839 785.92 115.358L789.501 111.349ZM780.567 89.7055L785.942 89.6766C785.908 83.2751 787.591 77.912 790.866 73.3593L786.503 70.2201L782.139 67.081C777.421 73.6399 775.147 81.267 775.192 89.7344L780.567 89.7055ZM786.503 70.2201L790.851 73.3798C794.267 68.6788 799.012 64.9055 805.288 62.1242L803.11 57.2099L800.932 52.2956C793.139 55.7496 786.812 60.6497 782.154 67.0604L786.503 70.2201ZM803.11 57.2099L805.288 62.1242C811.534 59.3561 818.768 57.9086 827.092 57.9086V52.5334V47.1581C817.511 47.1581 808.756 48.8282 800.932 52.2956L803.11 57.2099ZM827.092 52.5334V57.9086C835.598 57.9086 842.758 59.3631 848.713 62.0954L850.954 57.2099L853.196 52.3243C845.561 48.8213 836.813 47.1581 827.092 47.1581V52.5334ZM850.954 57.2099L848.724 62.1004C854.774 64.8601 859.283 68.5975 862.465 73.2531L866.903 70.2201L871.34 67.1871C866.928 60.7311 860.805 55.7949 853.185 52.3193L850.954 57.2099ZM866.903 70.2201L862.465 73.2532C865.616 77.8644 867.299 83.2557 867.404 89.6137L872.778 89.5256L878.153 89.4375C878.017 81.1665 875.783 73.6874 871.34 67.1871L866.903 70.2201ZM872.778 89.5256V84.1503H847.897V89.5256V94.9009H872.778V89.5256ZM917.879 54.2121H923.255V48.8368H917.879V54.2121ZM917.879 177V182.375H923.255V177H917.879ZM891.919 177H886.543V182.375H891.919V177ZM891.919 54.2121V48.8368H886.543V54.2121H891.919ZM917.879 54.2121H912.504V177H917.879H923.255V54.2121H917.879ZM917.879 177V171.625H891.919V177V182.375H917.879V177ZM891.919 177H897.294V54.2121H891.919H886.543V177H891.919ZM891.919 54.2121V59.5874H917.879V54.2121V48.8368H891.919V54.2121ZM1044.46 149.78L1039.73 147.225L1039.73 147.233L1039.72 147.24L1044.46 149.78ZM1023.83 171.304L1026.49 175.981L1026.49 175.977L1023.83 171.304ZM965.199 171.244L967.866 166.577L965.199 171.244ZM944.634 149.72L939.897 152.26L939.897 152.26L944.634 149.72ZM944.634 81.4317L949.372 83.9717L949.372 83.9717L944.634 81.4317ZM965.199 59.9678L967.849 64.6441L967.858 64.6395L967.866 64.6348L965.199 59.9678ZM1023.83 59.9678L1021.17 64.6348L1021.18 64.6421L1021.19 64.6493L1023.83 59.9678ZM1044.46 81.4317L1039.72 83.9717L1039.73 83.9795L1039.73 83.9873L1044.46 81.4317ZM1021.86 93.6625L1016.92 95.7839L1016.92 95.7979L1016.93 95.8118L1021.86 93.6625ZM1011 80.1127L1008.05 84.6028L1008.05 84.6028L1011 80.1127ZM978.149 80.1127L981.104 84.6028L981.104 84.6028L978.149 80.1127ZM967.237 93.6625L962.31 91.5132L962.304 91.5271L962.298 91.5411L967.237 93.6625ZM967.237 137.55L962.298 139.671L962.304 139.685L962.31 139.699L967.237 137.55ZM978.149 151.099L981.104 146.609L981.104 146.609L978.149 151.099ZM1011 151.099L1008.05 146.609L1008.05 146.609L1011 151.099ZM1021.86 137.55L1016.93 135.4L1016.92 135.414L1016.92 135.428L1021.86 137.55ZM1052.07 115.606H1046.7C1046.7 128.326 1044.29 138.792 1039.73 147.225L1044.46 149.78L1049.19 152.336C1054.78 141.983 1057.45 129.666 1057.45 115.606H1052.07ZM1044.46 149.78L1039.72 147.24C1035.13 155.8 1028.95 162.208 1021.18 166.632L1023.83 171.304L1026.49 175.977C1036.14 170.488 1043.71 162.547 1049.2 152.32L1044.46 149.78ZM1023.83 171.304L1021.18 166.628C1013.39 171.047 1004.56 173.303 994.577 173.303V178.679V184.054C1006.26 184.054 1016.93 181.394 1026.49 175.981L1023.83 171.304ZM994.577 178.679V173.303C984.512 173.303 975.653 171.027 967.866 166.577L965.199 171.244L962.532 175.911C972.091 181.374 982.818 184.054 994.577 184.054V178.679ZM965.199 171.244L967.866 166.577C960.127 162.155 953.964 155.746 949.372 147.18L944.634 149.72L939.897 152.26C945.377 162.481 952.923 170.421 962.532 175.911L965.199 171.244ZM944.634 149.72L949.372 147.18C944.847 138.742 942.455 128.289 942.455 115.606H937.08H931.705C931.705 129.623 934.349 141.913 939.897 152.26L944.634 149.72ZM937.08 115.606H942.455C942.455 102.88 944.848 92.4083 949.372 83.9717L944.634 81.4317L939.897 78.8917C934.348 89.241 931.705 101.553 931.705 115.606H937.08ZM944.634 81.4317L949.372 83.9717C953.962 75.4092 960.121 69.0248 967.849 64.6441L965.199 59.9678L962.548 55.2915C952.93 60.7434 945.378 68.6683 939.897 78.8917L944.634 81.4317ZM965.199 59.9678L967.866 64.6348C975.653 60.1848 984.512 57.9086 994.577 57.9086V52.5334V47.1581C982.818 47.1581 972.091 49.8382 962.532 55.3007L965.199 59.9678ZM994.577 52.5334V57.9086C1004.55 57.9086 1013.37 60.1814 1021.17 64.6348L1023.83 59.9678L1026.5 55.3007C1016.95 49.8416 1006.26 47.1581 994.577 47.1581V52.5334ZM1023.83 59.9678L1021.19 64.6493C1028.96 69.0318 1035.13 75.4155 1039.72 83.9717L1044.46 81.4317L1049.2 78.8917C1043.71 68.662 1036.14 60.7364 1026.48 55.2863L1023.83 59.9678ZM1044.46 81.4317L1039.73 83.9873C1044.29 92.4203 1046.7 102.886 1046.7 115.606H1052.07H1057.45C1057.45 101.546 1054.78 89.229 1049.19 78.8761L1044.46 81.4317ZM1025.75 115.606H1031.13C1031.13 106.428 1029.76 98.333 1026.78 91.5132L1021.86 93.6625L1016.93 95.8118C1019.15 100.903 1020.38 107.438 1020.38 115.606H1025.75ZM1021.86 93.6625L1026.8 91.5411C1023.89 84.7752 1019.65 79.3656 1013.96 75.6225L1011 80.1127L1008.05 84.6028C1011.71 87.0152 1014.71 90.6388 1016.92 95.7839L1021.86 93.6625ZM1011 80.1127L1013.96 75.6225C1008.3 71.8992 1001.77 70.1209 994.577 70.1209V75.4961V80.8714C999.933 80.8714 1004.35 82.1708 1008.05 84.6028L1011 80.1127ZM994.577 75.4961V70.1209C987.382 70.1209 980.852 71.8992 975.194 75.6225L978.149 80.1127L981.104 84.6028C984.8 82.1708 989.22 80.8714 994.577 80.8714V75.4961ZM978.149 80.1127L975.194 75.6225C969.515 79.3603 965.257 84.7597 962.31 91.5132L967.237 93.6625L972.164 95.8118C974.414 90.6543 977.431 87.0205 981.104 84.6028L978.149 80.1127ZM967.237 93.6625L962.298 91.5411C959.373 98.3523 958.025 106.436 958.025 115.606H963.4H968.775C968.775 107.429 969.986 100.884 972.176 95.7839L967.237 93.6625ZM963.4 115.606H958.025C958.025 124.776 959.373 132.86 962.298 139.671L967.237 137.55L972.176 135.428C969.986 130.328 968.775 123.783 968.775 115.606H963.4ZM967.237 137.55L962.31 139.699C965.257 146.452 969.515 151.852 975.194 155.59L978.149 151.099L981.104 146.609C977.431 144.192 974.414 140.558 972.164 135.4L967.237 137.55ZM978.149 151.099L975.194 155.59C980.852 159.313 987.382 161.091 994.577 161.091V155.716V150.341C989.22 150.341 984.8 149.041 981.104 146.609L978.149 151.099ZM994.577 155.716V161.091C1001.77 161.091 1008.3 159.313 1013.96 155.59L1011 151.099L1008.05 146.609C1004.35 149.041 999.933 150.341 994.577 150.341V155.716ZM1011 151.099L1013.96 155.59C1019.65 151.847 1023.89 146.437 1026.8 139.671L1021.86 137.55L1016.92 135.428C1014.71 140.573 1011.71 144.197 1008.05 146.609L1011 151.099ZM1021.86 137.55L1026.78 139.699C1029.76 132.879 1031.13 124.785 1031.13 115.606H1025.75H1020.38C1020.38 123.775 1019.15 130.309 1016.93 135.4L1021.86 137.55ZM1174.01 54.2121H1179.38V48.8368H1174.01V54.2121ZM1174.01 177V182.375H1179.38V177H1174.01ZM1151.58 177L1147.16 180.056L1148.77 182.375H1151.58V177ZM1098.16 99.718L1102.59 96.6615L1100.98 94.3427H1098.16V99.718ZM1097.26 99.718V94.3427H1091.89V99.718H1097.26ZM1097.26 177V182.375H1102.64V177H1097.26ZM1071.3 177H1065.93V182.375H1071.3V177ZM1071.3 54.2121V48.8368H1065.93V54.2121H1071.3ZM1094.09 54.2121L1098.52 51.1704L1096.92 48.8368H1094.09V54.2121ZM1147.09 131.434L1142.66 134.476L1144.26 136.809H1147.09V131.434ZM1148.17 131.434V136.809H1153.54V131.434H1148.17ZM1148.17 54.2121V48.8368H1142.79V54.2121H1148.17ZM1174.01 54.2121H1168.63V177H1174.01H1179.38V54.2121H1174.01ZM1174.01 177V171.625H1151.58V177V182.375H1174.01V177ZM1151.58 177L1156.01 173.944L1102.59 96.6615L1098.16 99.718L1093.74 102.774L1147.16 180.056L1151.58 177ZM1098.16 99.718V94.3427H1097.26V99.718V105.093H1098.16V99.718ZM1097.26 99.718H1091.89V177H1097.26H1102.64V99.718H1097.26ZM1097.26 177V171.625H1071.3V177V182.375H1097.26V177ZM1071.3 177H1076.68V54.2121H1071.3H1065.93V177H1071.3ZM1071.3 54.2121V59.5874H1094.09V54.2121V48.8368H1071.3V54.2121ZM1094.09 54.2121L1089.66 57.2539L1142.66 134.476L1147.09 131.434L1151.52 128.392L1098.52 51.1704L1094.09 54.2121ZM1147.09 131.434V136.809H1148.17V131.434V126.059H1147.09V131.434ZM1148.17 131.434H1153.54V54.2121H1148.17H1142.79V131.434H1148.17ZM1148.17 54.2121V59.5874H1174.01V54.2121V48.8368H1148.17V54.2121Z" fill="black" mask="url(#path-4-outside-2_57_4)"/>
<path d="M96.5 40.8484C138.324 40.8484 172.303 75.1605 172.303 117.576C172.303 159.991 138.324 194.303 96.5 194.303C54.6758 194.303 20.6975 159.991 20.6973 117.576C20.6973 75.1605 54.6757 40.8484 96.5 40.8484Z" fill="#A41034" stroke="black" stroke-width="7.39535"/>
</svg>
